<?xml version="1.0" encoding="iso-8859-1"?>
<!-- Generator: Adobe Illustrator 19.0.0, SVG Export Plug-In . SVG Version: 6.00 Build 0)  -->
<svg version="1.1" id="Layer_1" xmlns="http://www.w3.org/2000/svg" xmlns:xlink="http://www.w3.org/1999/xlink" x="0px" y="0px"
	 viewBox="0 0 512 512" style="enable-background:new 0 0 512 512;" xml:space="preserve">
<g>
	<rect x="10.199" y="228.645" style="fill:#FF7731;" width="491.602" height="62.593"/>
	<path style="fill:#FF7731;" d="M482.422,291.243H29.578v85.334c0,66.844,54.187,121.031,121.031,121.031h210.784
		c66.843-0.001,121.03-54.188,121.03-121.031V291.243z"/>
</g>
<rect x="361.613" y="56.441" style="fill:#BDCED4;" width="50.068" height="50.905"/>
<path style="fill:#FF2E48;" d="M455.075,209.154c0-23.966-19.428-43.395-43.395-43.395v-58.416H361.61v58.416
	c-23.966,0-43.395,19.428-43.395,43.395v19.495h136.86V209.154z"/>
<rect x="224.607" y="14.39" style="fill:#FF7731;" width="62.786" height="276.847"/>
<rect x="58.135" y="173.273" style="fill:#BDCED4;" width="138.709" height="55.382"/>
<path d="M501.801,218.451h-36.526v-9.296c0-26.065-18.704-47.844-43.396-52.62v-49.191V56.438c0-5.633-4.567-10.199-10.199-10.199
	h-50.071c-5.632,0-10.199,4.566-10.199,10.199v50.905v49.191c-24.69,4.776-43.394,26.555-43.394,52.62v9.296H297.59V14.391
	c0-5.633-4.567-10.199-10.199-10.199h-62.783c-5.632,0-10.199,4.566-10.199,10.199v204.06h-7.365v-45.177
	c0-5.633-4.567-10.199-10.199-10.199H58.135c-5.632,0-10.199,4.566-10.199,10.199v45.177H10.199C4.567,218.451,0,223.017,0,228.65
	v62.595c0,5.633,4.567,10.199,10.199,10.199h9.179v75.134c0,72.36,58.87,131.23,131.23,131.23h210.783
	c72.36,0,131.23-58.87,131.23-131.23v-75.134h9.179c5.632,0,10.199-4.566,10.199-10.199V228.65
	C512,223.017,507.433,218.451,501.801,218.451z M371.809,66.638h29.673v30.507h-29.673V66.638z M328.414,209.154
	c0-18.303,14.892-33.195,33.195-33.195c5.632,0,10.199-4.566,10.199-10.199v-48.217h29.673v48.217
	c0,5.633,4.567,10.199,10.199,10.199c18.305,0,33.196,14.892,33.196,33.195v9.296H328.414V209.154z M297.59,281.044v-42.196h194.011
	v42.196H297.59z M234.808,24.59h42.385v256.454h-42.385L234.808,24.59L234.808,24.59z M68.335,183.471h118.311v34.978H68.335
	V183.471z M20.398,281.044v-42.196H214.41v42.196H20.398z M472.223,301.443v75.134c0,61.113-49.719,110.832-110.832,110.832H150.609
	C89.496,487.408,39.777,437.69,39.777,376.577v-75.134H472.223z"/>
<path d="M386.55,343.599h12.239c5.632,0,10.199-4.566,10.199-10.199c0-5.633-4.567-10.199-10.199-10.199H386.55
	c-5.632,0-10.199,4.566-10.199,10.199C376.351,339.033,380.918,343.599,386.55,343.599z"/>
<path d="M62.215,333.4c0,5.633,4.567,10.199,10.199,10.199h269.259c5.632,0,10.199-4.566,10.199-10.199
	c0-5.633-4.567-10.199-10.199-10.199H72.414C66.782,323.201,62.215,327.767,62.215,333.4z"/>
<path d="M398.789,371.137H72.414c-5.632,0-10.199,4.566-10.199,10.199s4.567,10.199,10.199,10.199h326.375
	c5.632,0,10.199-4.566,10.199-10.199S404.421,371.137,398.789,371.137z"/>
<path d="M398.789,419.073H94.853c-5.632,0-10.199,4.566-10.199,10.199s4.567,10.199,10.199,10.199h303.936
	c5.632,0,10.199-4.566,10.199-10.199S404.421,419.073,398.789,419.073z"/>
<g>
</g>
<g>
</g>
<g>
</g>
<g>
</g>
<g>
</g>
<g>
</g>
<g>
</g>
<g>
</g>
<g>
</g>
<g>
</g>
<g>
</g>
<g>
</g>
<g>
</g>
<g>
</g>
<g>
</g>
</svg>
