<?xml version="1.0" encoding="iso-8859-1"?>
<!-- Generator: Adobe Illustrator 19.0.0, SVG Export Plug-In . SVG Version: 6.00 Build 0)  -->
<svg version="1.1" id="Layer_1" xmlns="http://www.w3.org/2000/svg" xmlns:xlink="http://www.w3.org/1999/xlink" x="0px" y="0px"
	 viewBox="0 0 512 512" style="enable-background:new 0 0 512 512;" xml:space="preserve">
<path style="fill:#FFBC33;" d="M456.348,278.261H55.652c-9.223,0-16.696,7.473-16.696,16.696v133.565
	c0,46.032,37.446,83.478,83.478,83.478h267.13c46.032,0,83.478-37.446,83.478-83.478V294.957
	C473.043,285.734,465.57,278.261,456.348,278.261z"/>
<path style="fill:#F29A36;" d="M456.348,278.261H256V512h133.565c46.032,0,83.478-37.446,83.478-83.478V294.957
	C473.043,285.734,465.57,278.261,456.348,278.261z"/>
<path style="fill:#FFBC33;" d="M389.565,512V308.212c0-9.223-7.473-16.696-16.696-16.696s-16.696,7.473-16.696,16.696V512H389.565z"
	/>
<g>
	<path style="fill:#FFDE33;" d="M155.826,512V308.212c0-9.223-7.473-16.696-16.696-16.696s-16.696,7.473-16.696,16.696V512H155.826z
		"/>
	<rect x="38.957" y="378.435" style="fill:#FFDE33;" width="434.087" height="33.391"/>
</g>
<g>
	<rect x="256" y="378.435" style="fill:#FFBC33;" width="217.043" height="33.391"/>
	<path style="fill:#FFBC33;" d="M422.957,228.174H89.043c-9.223,0-16.696-7.473-16.696-16.696V116.87
		C72.348,52.429,124.777,0,189.217,0h133.565c64.441,0,116.87,52.429,116.87,116.87v94.609
		C439.652,220.701,432.179,228.174,422.957,228.174z M105.739,194.783h300.522V116.87c0-46.032-37.446-83.478-83.478-83.478H189.217
		c-46.032,0-83.478,37.446-83.478,83.478V194.783z"/>
</g>
<path style="fill:#F29A36;" d="M322.783,0H256v33.391h66.783c46.032,0,83.478,37.446,83.478,83.478v77.913H256v33.391h166.957
	c9.223,0,16.696-7.473,16.696-16.696V116.87C439.652,52.429,387.223,0,322.783,0z"/>
<path style="fill:#FFDE33;" d="M272.696,308.202V512h-33.391V308.202c0-9.238,7.456-16.696,16.696-16.696
	S272.696,298.963,272.696,308.202z"/>
<path style="fill:#FFBC33;" d="M272.696,308.202V512H256V291.506C265.239,291.506,272.696,298.963,272.696,308.202z"/>
<path style="fill:#E55639;" d="M456.348,178.087H55.652c-27.603,0-50.087,22.483-50.087,50.087v68.23
	c0,11.91,7.456,22.706,18.587,26.936c19.812,7.457,30.165-6.233,39.848-17.363c8.57-9.795,24.821-9.795,33.391,0
	c22.038,25.266,61.44,25.266,83.478,0c8.57-9.795,24.821-9.795,33.391,0c11.019,12.577,26.379,18.922,41.739,18.922
	s30.72-6.344,41.739-18.922c8.57-9.795,24.821-9.795,33.391,0c22.038,25.266,61.44,25.266,83.478,0
	c8.57-9.795,24.821-9.795,33.391,0c9.684,11.13,19.812,24.821,39.848,17.363c11.13-4.23,18.587-15.026,18.587-26.936v-68.23
	C506.435,200.57,483.951,178.087,456.348,178.087z"/>
<path style="fill:#CF4529;" d="M506.435,228.174v68.23c0,11.91-7.456,22.706-18.587,26.936
	c-20.035,7.457-30.165-6.233-39.848-17.363c-8.57-9.795-24.821-9.795-33.391,0c-22.038,25.266-61.44,25.266-83.478,0
	c-8.57-9.795-24.821-9.795-33.391,0C286.72,318.553,271.36,324.897,256,324.897v-146.81h200.348
	C483.951,178.087,506.435,200.57,506.435,228.174z"/>
<g>
</g>
<g>
</g>
<g>
</g>
<g>
</g>
<g>
</g>
<g>
</g>
<g>
</g>
<g>
</g>
<g>
</g>
<g>
</g>
<g>
</g>
<g>
</g>
<g>
</g>
<g>
</g>
<g>
</g>
</svg>
